# This file uses centimeters as units for non-parametric coordinates.

mtllib DestroyedPart1.mtl
g default
v -0.521914 -1.951189 4.338215
v -0.306549 -1.861982 4.338215
v -0.091184 -1.951189 4.338215
v -0.521914 -1.951189 3.589394
v -0.306549 -1.861982 3.589394
v -0.091184 -1.951189 3.589394
v -0.576963 -1.896140 4.734480
v -0.306549 -1.784132 4.734480
v -0.036135 -1.896140 4.734480
v -5.702694 -2.322226 -3.174932
v -5.702694 -2.611335 -2.773816
v -5.165750 -1.198276 -2.785048
v -4.611896 -2.071502 -3.322072
v -5.165751 -3.437452 -0.142125
v -5.165751 -2.481555 -2.785048
v -4.058042 0.052483 3.269074
v -2.656649 -0.248018 5.320746
v -2.656650 -0.362405 3.269074
v -1.085042 -0.720616 5.320746
v -0.894521 -0.835003 3.269074
v 0.678693 -1.327216 5.154767
v 0.782925 -1.320518 3.269074
v 2.646470 -2.050247 3.269074
v -2.656650 -1.638054 3.269074
v -4.058042 -0.226756 0.840262
v -2.656650 -0.497298 0.840262
v -0.894521 -0.977085 0.840262
v 0.782925 -1.446109 0.840262
v 2.646470 -2.072332 0.840262
v 5.446084 -3.056651 2.777539
v 5.702694 -3.078737 0.840262
v 2.646470 -2.358716 -2.916865
v 5.526275 -3.078737 -1.228653
v -4.876900 -3.134453 0.070636
v -1.159694 -1.978044 -3.494850
v 0.782925 -2.079300 -3.509668
v 0.782925 -1.808934 3.269074
v -0.700521 -1.237369 5.295802
v -2.656650 -2.525477 0.840262
v 0.782925 -2.732368 0.840262
v 2.646470 -2.991591 0.840262
v 5.446084 -3.199417 0.840262
v -4.876900 -2.358716 -2.785048
v -4.058042 -0.046398 -1.978480
v -1.098634 -0.938798 -1.767042
v 0.782925 -1.599967 -1.479428
v 2.646470 -2.072332 -1.612760
v 2.646470 -2.655686 -1.612760
v 0.782925 -2.546763 -1.612760
v -2.656650 -2.454073 -1.612760
v 5.655031 -3.166951 0.840262
v -2.792633 -0.293577 -1.893906
v -2.792633 -3.076144 -5.320746
v -2.792633 -1.681292 -4.100102
v -1.408231 -3.039487 -5.002381
v -3.915833 -1.698155 -4.363429
v -4.058042 -3.101826 -5.243255
v -2.674687 -2.972992 -5.184532
v -2.674687 -1.795127 -4.153779
v -1.295772 -2.045714 -3.642677
v -1.505643 -2.942038 -4.915693
v -2.674687 -2.972992 -3.092708
v -2.674687 -1.795127 -2.061954
v -1.295772 -2.091352 -1.292985
v -1.505643 -2.942038 -2.823869
v -2.699710 -0.402937 -2.005483
v -1.209577 -0.970507 -1.893889
v -1.263291 -1.884683 -3.413760
v -2.699710 -1.623645 -3.946174
v -2.699710 -0.537368 0.115293
v -1.209577 -1.104939 0.226886
v -1.263291 -2.019115 -1.292985
v -2.699710 -1.758076 -1.825398
v -2.792633 -3.076144 -3.254724
v -1.408231 -3.039487 -2.933525
v -4.058042 -3.101826 -3.180064
v -1.955025 -0.648320 5.304313
v -1.817207 -0.648320 5.231409
v -0.787034 3.437451 3.913097
v -0.741027 3.437451 3.882282
v -1.500625 3.437451 2.753150
v -1.454617 3.437451 2.722335
v -3.709168 -0.948767 0.888881
v -3.571352 -0.948767 0.815978
v -1.145921 1.430201 4.401951
v -1.008104 1.430201 4.329048
v -2.870115 -0.616504 0.809079
v -3.007933 -0.616504 0.881982
v -2.090096 1.243185 1.705991
v -1.953154 1.243185 1.631549
v -0.696779 2.483825 3.910524
v -0.833721 2.483825 3.984966
v -3.628217 -0.238559 0.840263
v -3.767492 -0.054502 0.840263
v -3.988356 0.012539 0.840263
v -4.206443 -0.063043 0.840263
v -4.338453 -0.252379 0.840263
v -3.623726 -0.469329 0.840263
v -3.981090 -0.360854 0.840263
v -3.704497 -0.236362 0.840263
v -3.813666 -0.092093 0.840263
v -3.981090 -0.332221 0.840263
v -3.986785 -0.039544 0.840263
v -4.157728 -0.098787 0.840263
v -4.261202 -0.247195 0.840263
v -3.700977 -0.417246 0.840263
v -0.142546 -2.105681 3.659948
v -0.306548 -2.105681 3.592016
v -0.470551 -2.105681 3.659948
v -0.538484 -2.105681 3.823951
v -0.470551 -2.105681 3.987954
v -0.306548 -2.105681 4.055886
v -0.142546 -2.105681 3.987954
v -0.074614 -2.105681 3.823951
v -0.142546 -1.535446 3.659948
v -0.306548 -1.535446 3.592016
v -0.470551 -1.535446 3.659948
v -0.538484 -1.535446 3.823951
v -0.470551 -1.535446 3.987954
v -0.306548 -1.535446 4.055886
v -0.142546 -1.535446 3.987954
v -0.074614 -1.535446 3.823951
v -0.306548 -2.105681 3.823951
vt 0.357421 0.705861
vt 0.380095 0.716850
vt 0.361215 0.698232
vt 0.383739 0.709894
vt 0.365480 0.690552
vt 0.387611 0.702995
vt 0.343701 0.701991
vt 0.348275 0.693034
vt 0.353322 0.684281
vt 0.937639 0.083611
vt 0.938458 0.067157
vt 0.286602 0.201997
vt 0.251940 0.181394
vt 0.956178 0.081896
vt 0.975801 0.060405
vt 0.376579 0.400982
vt 0.376080 0.485058
vt 0.336471 0.428277
vt 0.329918 0.514627
vt 0.285711 0.462037
vt 0.273979 0.544353
vt 0.236714 0.494290
vt 0.180471 0.531509
vt 0.712297 0.316784
vt 0.644332 0.383150
vt 0.599553 0.312341
vt 0.329321 0.333763
vt 0.289778 0.361949
vt 0.238916 0.395830
vt 0.190558 0.427900
vt 0.136263 0.463898
vt 0.087297 0.572945
vt 0.048269 0.522038
vt 0.089612 0.396921
vt 0.011972 0.464249
vt 0.062137 0.361980
vt 0.811614 0.199687
vt 0.797672 0.205843
vt 0.274213 0.260012
vt 0.151088 0.268654
vt 0.194516 0.320782
vt 0.144967 0.364715
vt 0.101512 0.309728
vt 0.538500 0.310856
vt 0.599677 0.376577
vt 0.718718 0.229202
vt 0.601004 0.226641
vt 0.537458 0.225949
vt 0.443714 0.225053
vt 0.442569 0.288580
vt 0.806528 0.105420
vt 0.796399 0.102526
vt 0.538974 0.145193
vt 0.602256 0.145215
vt 0.596761 0.080787
vt 0.538442 0.101772
vt 0.442191 0.157477
vt 0.720514 0.146649
vt 0.796677 0.078632
vt 0.045571 0.523920
vt 0.039916 0.527998
vt 0.242366 0.286437
vt 0.180315 0.148573
vt 0.210396 0.194139
vt 0.186869 0.223197
vt 0.146097 0.176810
vt 0.455208 0.798138
vt 0.502927 0.821724
vt 0.481891 0.876943
vt 0.430558 0.870398
vt 0.181329 0.223056
vt 0.146804 0.183927
vt 0.151035 0.261521
vt 0.116830 0.215918
vt 0.122180 0.216900
vt 0.748510 0.808354
vt 0.768381 0.773767
vt 0.701860 0.753514
vt 0.681988 0.788101
vt 0.747006 0.726330
vt 0.680485 0.706078
vt 0.744322 0.676813
vt 0.669671 0.653785
vt 0.793454 0.659114
vt 0.726632 0.639876
vt 0.194559 0.315047
vt 0.236732 0.284922
vt 0.156440 0.269299
vt 0.187846 0.229217
vt 0.415758 0.940287
vt 0.372851 0.911356
vt 0.473465 0.899328
vt 0.397502 0.839097
vt 0.370822 0.793036
vt 0.428529 0.752077
vt 0.311737 0.793732
vt 0.369443 0.752773
vt 0.713446 0.018046
vt 0.670244 0.031439
vt 0.675132 0.099533
vt 0.719374 0.087014
vt 0.754357 0.017070
vt 0.760292 0.085799
vt 0.628142 0.716649
vt 0.663267 0.763600
vt 0.123032 0.797067
vt 0.163191 0.789049
vt 0.161949 0.794105
vt 0.121730 0.802227
vt 0.086789 0.800347
vt 0.077387 0.760371
vt 0.079054 0.760992
vt 0.088127 0.799222
vt 0.168827 0.640588
vt 0.127486 0.698614
vt 0.122743 0.696146
vt 0.164131 0.640525
vt 0.032340 0.725179
vt 0.027327 0.685488
vt 0.242045 0.768490
vt 0.240809 0.773524
vt 0.023309 0.602338
vt 0.181695 0.621258
vt 0.187102 0.621617
vt 0.032071 0.757121
vt 0.273205 0.059577
vt 0.272511 0.067366
vt 0.272846 0.075205
vt 0.274269 0.082894
vt 0.277093 0.090073
vt 0.275282 0.052137
vt 0.275151 0.061182
vt 0.274288 0.068095
vt 0.274450 0.074967
vt 0.275788 0.081613
vt 0.278259 0.087574
vt 0.286362 0.080613
vt 0.285493 0.080185
vt 0.277157 0.054933
vt 0.285515 0.060828
vt 0.285140 0.061716
vt 0.286054 0.748015
vt 0.285780 0.743857
vt 0.303730 0.747203
vt 0.301906 0.755683
vt 0.282478 0.739635
vt 0.303096 0.738900
vt 0.273972 0.737784
vt 0.302424 0.732105
vt 0.273875 0.745512
vt 0.272176 0.769307
vt 0.264217 0.766898
vt 0.276656 0.750108
vt 0.280970 0.770139
vt 0.280437 0.751753
vt 0.289699 0.768108
vt 0.283896 0.750853
vt 0.297041 0.763057
vt 0.279066 0.743897
vn -0.705096 0.705098 -0.075338
vn 0.000000 0.997158 -0.075338
vn 0.000000 1.000000 0.000000
vn -0.707106 0.707108 0.000000
vn 0.705096 0.705098 -0.075338
vn 0.707106 0.707108 0.000000
vn -0.694407 0.694410 -0.188663
vn 0.000000 0.982042 -0.188662
vn 0.694408 0.694410 -0.188662
vn -0.852311 0.174480 -0.493075
vn 0.436844 -0.827681 -0.352294
vn 0.372660 -0.827588 -0.419788
vn -0.004932 -0.018932 -0.999809
vn 0.262434 0.963209 -0.057930
vn 0.292811 0.956170 0.001170
vn 0.304903 0.951964 0.028268
vn 0.276539 0.960205 -0.039151
vn 0.652720 -0.170660 0.738128
vn 0.315429 0.948675 -0.022821
vn 0.546411 -0.033071 0.836864
vn 0.037698 0.996568 -0.073701
vn 0.249762 0.964141 -0.089727
vn 0.255060 0.966859 -0.011279
vn 0.287831 0.957234 -0.029260
vn 0.301775 0.952684 -0.036390
vn 0.319176 0.947605 -0.013115
vn 0.554520 0.297603 0.777136
vn 0.337854 0.941197 -0.001646
vn 0.293934 0.951976 -0.085694
vn 0.847972 0.305065 -0.433449
vn 0.389998 0.060126 -0.918851
vn -0.008654 0.855550 -0.517648
vn -0.126724 0.965619 -0.226982
vn 0.165367 0.877811 -0.449557
vn 0.283266 0.951510 -0.119954
vn 0.263062 0.953831 -0.144927
vn 0.673098 -0.215012 -0.707608
vn -0.028840 -0.977089 0.210867
vn -0.071137 -0.948802 0.307757
vn 0.066513 -0.987406 0.143546
vn -0.072285 -0.986094 0.149644
vn 0.094497 -0.957453 0.272681
vn -0.133489 -0.986478 0.095086
vn -0.136767 -0.988560 0.063596
vn 0.312130 -0.949573 0.029780
vn 0.419674 -0.907674 -0.001107
vn 0.011028 -0.998991 -0.043537
vn -0.095468 -0.984897 -0.144440
vn 0.008899 -0.997261 -0.073422
vn 0.030965 -0.999169 0.026488
vn 0.434518 -0.900568 0.013117
vn 0.235898 0.961906 -0.138167
vn -0.424383 -0.488354 -0.762502
vn -0.372958 0.684727 -0.626141
vn 0.139750 0.759833 -0.634920
vn 0.064125 -0.896342 -0.438702
vn 0.398600 -0.485339 -0.778180
vn -0.401392 -0.124688 -0.907380
vn -0.312376 0.908998 -0.275943
vn 0.708959 0.692767 -0.132106
vn 0.854885 -0.505716 -0.115857
vn 0.484528 0.862008 -0.148911
vn -0.818491 -0.565984 -0.098665
vn 0.239705 -0.953889 -0.180660
vn -0.215113 0.971765 -0.096950
vn 0.688109 0.699210 -0.193936
vn -0.445699 0.850390 -0.279624
vn 0.438493 -0.751559 -0.492830
vn -0.422977 -0.576285 -0.699276
vn -0.858520 -0.502711 -0.101116
vn 0.833505 -0.538039 -0.125633
vn -0.005289 0.999838 -0.017208
vn 0.511058 0.857138 -0.064295
vn 0.151230 -0.981075 0.120916
vn -0.034787 -0.976921 0.210750
vn -0.315522 -0.923544 0.217975
vn -0.880215 0.196947 0.431781
vn -0.829619 0.478252 0.288110
vn 0.866347 -0.455597 -0.204632
vn 0.913522 -0.151133 -0.377671
vn 0.875276 0.076490 -0.477537
vn 0.819804 0.103836 -0.563152
vn -0.897375 0.078855 0.434166
vn -0.851315 0.051750 0.522097
vn -0.814412 0.552367 0.177834
vn -0.909438 0.329870 0.253197
vn 0.887214 -0.257727 -0.382659
vn 0.813702 -0.528769 -0.241439
vn -0.781259 0.581290 0.227457
vn 0.823050 -0.553020 -0.129450
vn 0.798847 -0.563492 -0.210525
vn -0.796251 0.574481 0.189622
vn 0.570476 0.804121 -0.167169
vn 0.949226 0.287059 -0.128717
vn 0.000004 0.000000 -1.000000
vn -0.000000 0.000000 -1.000000
vn -0.019409 0.983447 -0.180151
vn -0.000001 0.000000 -1.000000
vn -0.622245 0.765529 -0.163632
vn -0.000003 0.000000 -1.000000
vn -0.825846 0.546000 -0.140934
vn -0.000002 0.000000 -1.000000
vn -0.000005 0.000000 -1.000000
vn -0.000003 0.000000 -1.000000
vn 0.994936 -0.005211 -0.100370
vn -0.000001 0.000000 -1.000000
vn 0.699023 -0.150782 -0.699022
vn 0.000000 -0.150782 -0.988567
vn 0.000000 0.000000 -1.000000
vn 0.707107 0.000000 -0.707107
vn -0.699022 -0.150783 -0.699023
vn -0.707106 0.000000 -0.707108
vn -0.988567 -0.150782 0.000000
vn -1.000000 0.000000 0.000000
vn -0.699022 -0.150783 0.699023
vn -0.707106 0.000000 0.707108
vn 0.000000 -0.150782 0.988567
vn 0.000000 0.000000 1.000000
vn 0.699023 -0.150782 0.699022
vn 0.707107 0.000000 0.707107
vn 0.988567 -0.150782 0.000000
vn 1.000000 0.000000 0.000000
vn 0.000000 -1.000000 0.000000
s 1
g DestroyedPart1
usemtl ShipBodySG
f 1/1/1 2/3/2 5/4/3 4/2/4
f 2/3/2 3/5/5 6/6/6 5/4/3
f 2/3/2 1/1/1 7/7/7 8/8/8
f 3/5/5 2/3/2 8/8/8 9/9/9
s 2
f 13/15/10 15/14/11 11/10/12 10/11/13
f 18/18/14 17/17/15 19/19/16 20/20/17
f 20/20/17 19/19/16 21/21/18 22/22/19
f 22/22/19 21/21/18 23/23/20
f 25/27/21 16/16/22 18/18/14 26/28/23
f 26/28/23 18/18/14 20/20/17 27/29/24
f 27/29/24 20/20/17 22/22/19 28/30/25
f 28/30/25 22/22/19 23/23/20 29/31/26
f 29/31/26 23/23/20 30/32/27 31/33/28
f 47/34/29 33/35/30 32/36/31
f 12/12/32 44/39/33 13/13/10
f 35/40/34 45/41/35 46/42/36 36/43/37
f 46/42/36 47/34/29 32/36/31 36/43/37
f 23/44/20 21/45/18 38/25/38 37/26/39
f 39/46/40 40/47/41 37/26/39 24/24/42
f 40/47/41 41/48/43 23/44/20 37/26/39
f 41/48/43 42/49/44 30/50/27 23/44/20
f 34/38/45 14/37/46 15/51/11 43/52/47
f 48/53/48 49/54/49 36/55/37 32/56/31
f 33/57/30 48/53/48 32/56/31
f 46/42/36 45/41/35 27/29/24 28/30/25
f 29/31/26 47/34/29 46/42/36 28/30/25
f 40/47/41 49/54/49 48/53/48 41/48/43
f 39/46/40 50/58/50 49/54/49 40/47/41
f 13/59/10 43/52/47 15/51/11
f 51/60/51 30/32/27 42/61/44
f 31/33/28 30/32/27 51/60/51
f 52/62/52 26/28/23 27/29/24 45/41/35
f 57/63/53 56/64/54 54/65/55 53/66/56
f 70/67/57 71/68/58 72/69/59 73/70/60
f 13/13/10 44/39/33 56/64/54 57/63/53
f 53/66/56 54/65/55 59/71/61 58/72/62
f 54/65/55 35/40/34 60/73/63 59/71/61
f 35/40/34 55/74/64 61/75/65 60/73/63
f 55/74/64 53/66/56 58/72/62 61/75/65
f 61/76/65 58/77/62 62/78/66 65/79/67
f 59/80/61 63/81/68 62/78/66 58/77/62
f 60/82/63 64/83/69 63/81/68 59/80/61
f 61/84/65 65/85/67 64/83/69 60/82/63
f 52/62/52 45/41/35 67/86/70 66/87/71
f 45/41/35 35/40/34 68/88/72 67/86/70
f 35/40/34 54/65/55 69/89/73 68/88/72
f 54/65/55 52/62/52 66/87/71 69/89/73
f 68/90/72 69/91/73 73/70/60 72/92/59
f 69/91/73 66/93/71 70/67/57 73/70/60
f 67/94/70 71/95/58 70/67/57 66/93/71
f 68/96/72 72/97/59 71/95/58 67/94/70
f 53/98/56 55/99/64 75/100/74 74/101/75
f 57/102/53 53/98/56 74/101/75 76/103/76
f 13/59/10 57/102/53 76/103/76 43/52/47
f 49/54/49 50/58/50 74/101/75 75/100/74
f 50/58/50 43/52/47 76/103/76 74/101/75
f 63/81/68 64/104/69 65/105/67 62/78/66
f 36/55/37 49/54/49 75/100/74 55/99/64
f 36/43/37 55/74/64 35/40/34
s 9
f 92/106/77 85/107/78 86/108/79 91/109/80
f 80/110/81 82/111/82 81/112/83 79/113/84
f 88/114/85 89/115/86 90/116/87 87/117/88
f 87/117/88 90/116/87 91/118/80 86/119/79
f 89/115/86 88/114/85 85/107/78 92/106/77
f 85/107/78 77/120/89 78/121/90 86/108/79
f 78/122/90 84/123/91 87/117/88 86/119/79
f 84/123/91 83/124/92 88/114/85 87/117/88
f 88/114/85 83/124/92 77/120/89 85/107/78
f 90/116/87 89/115/86 81/112/83 82/111/82
f 90/116/87 82/111/82 80/125/81 91/118/80
f 92/106/77 91/109/80 80/110/81 79/113/84
f 79/113/84 81/112/83 89/115/86 92/106/77
s 11
f 94/127/93 93/126/94 100/132/95 101/133/96
f 95/128/97 94/127/93 101/133/96 103/134/98
f 96/129/99 95/128/97 103/134/98 104/135/100
f 97/130/101 96/129/99 104/135/100 105/136/102
f 99/137/103 97/130/101 105/136/102 102/138/104
f 93/126/94 98/131/105 106/139/106 100/132/95
f 98/131/105 99/140/103 102/141/104 106/139/106
s 12
f 107/142/107 108/143/108 116/144/109 115/145/110
f 108/143/108 109/146/111 117/147/112 116/144/109
f 109/146/111 110/148/113 118/149/114 117/147/112
f 110/148/113 111/150/115 119/151/116 118/152/114
f 111/150/115 112/153/117 120/154/118 119/151/116
f 112/153/117 113/155/119 121/156/120 120/154/118
f 113/155/119 114/157/121 122/158/122 121/156/120
f 114/157/121 107/142/107 115/145/110 122/158/122
f 108/143/108 107/142/107 123/159/123
f 109/146/111 108/143/108 123/159/123
f 110/148/113 109/146/111 123/159/123
f 111/150/115 110/148/113 123/159/123
f 112/153/117 111/150/115 123/159/123
f 113/155/119 112/153/117 123/159/123
f 114/157/121 113/155/119 123/159/123
f 107/142/107 114/157/121 123/159/123
