# This file uses centimeters as units for non-parametric coordinates.

mtllib SheepChunk_Tail.mtl
g default
v 0.059029 -0.013664 -0.240488
v -0.059029 -0.013664 -0.240488
v -0.118058 -0.047507 -0.144010
v -0.059029 -0.081351 -0.047532
v 0.059029 -0.081351 -0.047532
v 0.118058 -0.047507 -0.144010
v 0.102241 0.092663 -0.282506
v -0.102241 0.092663 -0.282506
v -0.204482 0.034046 -0.115403
v -0.102241 -0.024572 0.051701
v 0.102241 -0.024572 0.051701
v 0.204482 0.034046 -0.115403
v 0.118058 0.213134 -0.269279
v -0.118058 0.213134 -0.269279
v -0.236116 0.145447 -0.076324
v -0.118058 0.077762 0.116631
v 0.118058 0.077762 0.116631
v 0.236116 0.145447 -0.076324
v 0.102241 0.315468 -0.204350
v -0.102241 0.315468 -0.204350
v -0.204482 0.256850 -0.037246
v -0.102241 0.198232 0.129859
v 0.102241 0.198232 0.129859
v 0.204482 0.256850 -0.037246
v 0.059029 0.372246 -0.105116
v -0.059029 0.372246 -0.105116
v -0.118058 0.338403 -0.008639
v -0.059029 0.304560 0.087839
v 0.059029 0.304560 0.087839
v 0.118058 0.338403 -0.008639
v 0.000000 -0.077357 -0.154481
v 0.000000 0.368253 0.001833
v 0.083679 -0.276295 -0.035884
v -0.083679 -0.276295 -0.035884
v -0.167358 -0.324270 0.100882
v -0.083679 -0.372246 0.237648
v 0.083679 -0.372246 0.237648
v 0.167358 -0.324270 0.100882
v 0.144936 -0.125567 -0.095449
v -0.144936 -0.125567 -0.095449
v -0.289872 -0.208663 0.141435
v -0.144936 -0.291759 0.378320
v 0.144936 -0.291759 0.378320
v 0.289872 -0.208663 0.141435
v 0.167358 0.045212 -0.076699
v -0.167358 0.045212 -0.076699
v -0.334716 -0.050740 0.196833
v -0.167358 -0.146690 0.470364
v 0.167358 -0.146690 0.470364
v 0.334716 -0.050740 0.196833
v 0.144936 0.190279 0.015345
v -0.144936 0.190279 0.015345
v -0.289872 0.107184 0.252230
v -0.144936 0.024088 0.489115
v 0.144936 0.024088 0.489115
v 0.289872 0.107184 0.252230
v 0.083679 0.270767 0.156018
v -0.083679 0.270767 0.156018
v -0.167358 0.222792 0.292784
v -0.083679 0.174816 0.429549
v 0.083679 0.174816 0.429549
v 0.167358 0.222792 0.292784
v 0.000000 -0.366586 0.086038
v 0.000000 0.265107 0.307627
v 0.042167 0.088692 -0.459099
v -0.042167 0.088692 -0.459099
v -0.084334 0.064517 -0.390181
v -0.042167 0.040341 -0.321264
v 0.042167 0.040341 -0.321264
v 0.084334 0.064517 -0.390181
v 0.073035 0.164646 -0.489115
v -0.073035 0.164646 -0.489115
v -0.146070 0.122773 -0.369746
v -0.073035 0.080899 -0.250376
v 0.073035 0.080899 -0.250376
v 0.146070 0.122773 -0.369746
v 0.084334 0.250703 -0.479666
v -0.084334 0.250703 -0.479666
v -0.168668 0.202352 -0.341830
v -0.084334 0.154001 -0.203995
v 0.084334 0.154001 -0.203995
v 0.168668 0.202352 -0.341830
v 0.073035 0.323805 -0.433284
v -0.073035 0.323805 -0.433284
v -0.146070 0.281933 -0.313915
v -0.073035 0.240059 -0.194546
v 0.073035 0.240059 -0.194546
v 0.146070 0.281933 -0.313915
v 0.042167 0.364364 -0.362397
v -0.042167 0.364364 -0.362397
v -0.084334 0.340188 -0.293479
v -0.042167 0.316013 -0.224561
v 0.042167 0.316013 -0.224561
v 0.084334 0.340188 -0.293479
v 0.000000 0.043193 -0.397661
v 0.000000 0.361512 -0.285999
vt 0.285146 0.840425
vt 0.272807 0.840423
vt 0.269436 0.826579
vt 0.286915 0.827158
vt 0.260064 0.843074
vt 0.250599 0.827648
vt 0.248678 0.852505
vt 0.340610 0.842880
vt 0.309307 0.846041
vt 0.322165 0.832699
vt 0.297331 0.842003
vt 0.304195 0.828916
vt 0.268964 0.811905
vt 0.287953 0.813128
vt 0.248489 0.810336
vt 0.352113 0.819814
vt 0.327430 0.815869
vt 0.306949 0.814330
vt 0.271732 0.797317
vt 0.289000 0.799098
vt 0.253781 0.793503
vt 0.347830 0.793582
vt 0.325328 0.798569
vt 0.306482 0.799661
vt 0.278621 0.784235
vt 0.290800 0.785827
vt 0.266659 0.780176
vt 0.327269 0.773725
vt 0.315873 0.783158
vt 0.303128 0.785820
vt 0.284419 0.855645
vt 0.291549 0.770595
vt 0.285146 0.840425
vt 0.272807 0.840423
vt 0.269436 0.826579
vt 0.286915 0.827158
vt 0.260065 0.843074
vt 0.250599 0.827648
vt 0.248678 0.852505
vt 0.340610 0.842880
vt 0.309307 0.846041
vt 0.322165 0.832699
vt 0.297331 0.842003
vt 0.304195 0.828916
vt 0.268964 0.811905
vt 0.287953 0.813128
vt 0.248490 0.810336
vt 0.352113 0.819813
vt 0.327430 0.815869
vt 0.306949 0.814330
vt 0.271732 0.797317
vt 0.289000 0.799098
vt 0.253781 0.793503
vt 0.347830 0.793582
vt 0.325328 0.798569
vt 0.306482 0.799661
vt 0.278621 0.784235
vt 0.290800 0.785827
vt 0.266659 0.780176
vt 0.327269 0.773725
vt 0.315873 0.783158
vt 0.303128 0.785820
vt 0.284419 0.855646
vt 0.291549 0.770595
vt 0.285148 0.840426
vt 0.272810 0.840424
vt 0.269438 0.826581
vt 0.286917 0.827158
vt 0.260067 0.843076
vt 0.250601 0.827651
vt 0.248682 0.852509
vt 0.340613 0.842876
vt 0.309310 0.846039
vt 0.322167 0.832696
vt 0.297334 0.842003
vt 0.304197 0.828915
vt 0.268964 0.811907
vt 0.287953 0.813128
vt 0.248489 0.810340
vt 0.352113 0.819808
vt 0.327430 0.815866
vt 0.306949 0.814328
vt 0.271730 0.797319
vt 0.288999 0.799098
vt 0.253780 0.793506
vt 0.347828 0.793577
vt 0.325327 0.798566
vt 0.306481 0.799659
vt 0.278618 0.784236
vt 0.290798 0.785826
vt 0.266656 0.780178
vt 0.327266 0.773721
vt 0.315870 0.783155
vt 0.303126 0.785819
vt 0.284423 0.855646
vt 0.291545 0.770595
vt 0.258063 0.770599
vt 0.317936 0.855603
vt 0.235362 0.783297
vt 0.223829 0.806372
vt 0.228110 0.832630
vt 0.258067 0.770596
vt 0.317932 0.855605
vt 0.235364 0.783293
vt 0.223830 0.806366
vt 0.228108 0.832625
vt 0.258067 0.770596
vt 0.317932 0.855605
vt 0.235364 0.783292
vt 0.223830 0.806366
vt 0.228108 0.832625
vn 0.321962 -0.537369 -0.779471
vn -0.321962 -0.537369 -0.779471
vn -0.452518 -0.141913 -0.880391
vn 0.452519 -0.141913 -0.880391
vn -0.643925 -0.721958 -0.253251
vn -0.905037 -0.401354 -0.140792
vn -0.321964 -0.906548 0.272966
vn -0.452519 -0.660797 0.598811
vn 0.321964 -0.906548 0.272966
vn 0.452519 -0.660797 0.598811
vn 0.643925 -0.721958 -0.253251
vn 0.905037 -0.401354 -0.140792
vn -0.499999 0.286663 -0.817205
vn 0.499999 0.286663 -0.817206
vn -1.000000 -0.000001 0.000001
vn -0.500000 -0.286666 0.817204
vn 0.500000 -0.286666 0.817204
vn 1.000000 -0.000001 0.000001
vn -0.452519 0.660797 -0.598810
vn 0.452520 0.660797 -0.598810
vn -0.905037 0.401355 0.140790
vn -0.452518 0.141913 0.880391
vn 0.452518 0.141913 0.880391
vn 0.905037 0.401355 0.140790
vn -0.321962 0.906549 -0.272965
vn 0.321962 0.906549 -0.272965
vn -0.643925 0.721958 0.253252
vn -0.321963 0.537370 0.779470
vn 0.321963 0.537371 0.779470
vn 0.643925 0.721958 0.253252
vn -0.000000 -0.943626 -0.331013
vn -0.000000 0.943627 0.331011
vn 0.321962 -0.537368 -0.779472
vn -0.321962 -0.537368 -0.779472
vn -0.452519 -0.141914 -0.880390
vn 0.452519 -0.141914 -0.880390
vn -0.643924 -0.721959 -0.253253
vn -0.905037 -0.401355 -0.140791
vn -0.321962 -0.906549 0.272965
vn -0.452518 -0.660797 0.598810
vn 0.321962 -0.906549 0.272965
vn 0.452518 -0.660798 0.598810
vn 0.643924 -0.721959 -0.253253
vn 0.905037 -0.401355 -0.140791
vn -0.500000 0.286664 -0.817205
vn 0.500000 0.286664 -0.817205
vn -1.000000 -0.000001 0.000001
vn -0.500000 -0.286665 0.817205
vn 0.500000 -0.286665 0.817205
vn 1.000000 -0.000001 0.000001
vn -0.452519 0.660797 -0.598810
vn 0.452520 0.660797 -0.598810
vn -0.905037 0.401355 0.140789
vn -0.452519 0.141914 0.880391
vn 0.452518 0.141914 0.880391
vn 0.905037 0.401355 0.140790
vn -0.321963 0.906548 -0.272966
vn 0.321963 0.906548 -0.272966
vn -0.643924 0.721959 0.253253
vn -0.321962 0.537369 0.779471
vn 0.321962 0.537369 0.779471
vn 0.643924 0.721959 0.253253
vn -0.000000 -0.943627 -0.331011
vn -0.000000 0.943626 0.331013
vn 0.321962 -0.537369 -0.779471
vn -0.321962 -0.537369 -0.779471
vn -0.452518 -0.141912 -0.880391
vn 0.452518 -0.141912 -0.880391
vn -0.643925 -0.721958 -0.253253
vn -0.905037 -0.401355 -0.140792
vn -0.321962 -0.906550 0.272961
vn -0.452518 -0.660798 0.598811
vn 0.321962 -0.906550 0.272961
vn 0.452518 -0.660798 0.598811
vn 0.643925 -0.721958 -0.253253
vn 0.905037 -0.401355 -0.140792
vn -0.500000 0.286666 -0.817204
vn 0.500000 0.286666 -0.817204
vn -1.000000 0.000000 0.000001
vn -0.500000 -0.286663 0.817205
vn 0.500000 -0.286663 0.817205
vn 1.000000 0.000000 0.000002
vn -0.452519 0.660796 -0.598812
vn 0.452519 0.660796 -0.598811
vn -0.905037 0.401355 0.140790
vn -0.452518 0.141912 0.880391
vn 0.452518 0.141912 0.880391
vn 0.905037 0.401354 0.140790
vn -0.321960 0.906550 -0.272964
vn 0.321960 0.906550 -0.272964
vn -0.643921 0.721962 0.253253
vn -0.321959 0.537371 0.779471
vn 0.321959 0.537371 0.779471
vn 0.643921 0.721962 0.253253
vn -0.000000 -0.943626 -0.331013
vn 0.000000 0.943626 0.331013
s 1
g SheepChunk_Tail
usemtl initialShadingGroup
f 1/1/1 2/2/2 8/3/3 7/4/4
f 2/2/2 3/5/5 9/6/6 8/3/3
f 3/5/5 4/7/7 10/111/8 9/6/6
f 4/108/7 5/9/9 11/10/10 10/8/8
f 5/9/9 6/11/11 12/12/12 11/10/10
f 6/11/11 1/1/1 7/4/4 12/12/12
f 7/4/4 8/3/3 14/13/13 13/14/14
f 8/3/3 9/6/6 15/15/15 14/13/13
f 9/6/6 10/111/8 16/110/16 15/15/15
f 10/8/8 11/10/10 17/17/17 16/16/16
f 11/10/10 12/12/12 18/18/18 17/17/17
f 12/12/12 7/4/4 13/14/14 18/18/18
f 13/14/14 14/13/13 20/19/19 19/20/20
f 14/13/13 15/15/15 21/21/21 20/19/19
f 15/15/15 16/110/16 22/109/22 21/21/21
f 16/16/16 17/17/17 23/23/23 22/22/22
f 17/17/17 18/18/18 24/24/24 23/23/23
f 18/18/18 13/14/14 19/20/20 24/24/24
f 19/20/20 20/19/19 26/25/25 25/26/26
f 20/19/19 21/21/21 27/27/27 26/25/25
f 21/21/21 22/109/22 28/107/28 27/27/27
f 22/22/22 23/23/23 29/29/29 28/28/28
f 23/23/23 24/24/24 30/30/30 29/29/29
f 24/24/24 19/20/20 25/26/26 30/30/30
f 2/2/2 1/1/1 31/31/31
f 3/5/5 2/2/2 31/31/31
f 4/7/7 3/5/5 31/31/31
f 5/9/9 4/108/7 31/31/31
f 6/11/11 5/9/9 31/31/31
f 1/1/1 6/11/11 31/31/31
f 25/26/26 26/25/25 32/32/32
f 26/25/25 27/27/27 32/32/32
f 27/27/27 28/107/28 32/32/32
f 28/28/28 29/29/29 32/32/32
f 29/29/29 30/30/30 32/32/32
f 30/30/30 25/26/26 32/32/32
s 2
f 33/33/33 34/34/34 40/35/35 39/36/36
f 34/34/34 35/37/37 41/38/38 40/35/35
f 35/37/37 36/39/39 42/106/40 41/38/38
f 36/103/39 37/41/41 43/42/42 42/40/40
f 37/41/41 38/43/43 44/44/44 43/42/42
f 38/43/43 33/33/33 39/36/36 44/44/44
f 39/36/36 40/35/35 46/45/45 45/46/46
f 40/35/35 41/38/38 47/47/47 46/45/45
f 41/38/38 42/106/40 48/105/48 47/47/47
f 42/40/40 43/42/42 49/49/49 48/48/48
f 43/42/42 44/44/44 50/50/50 49/49/49
f 44/44/44 39/36/36 45/46/46 50/50/50
f 45/46/46 46/45/45 52/51/51 51/52/52
f 46/45/45 47/47/47 53/53/53 52/51/51
f 47/47/47 48/105/48 54/104/54 53/53/53
f 48/48/48 49/49/49 55/55/55 54/54/54
f 49/49/49 50/50/50 56/56/56 55/55/55
f 50/50/50 45/46/46 51/52/52 56/56/56
f 51/52/52 52/51/51 58/57/57 57/58/58
f 52/51/51 53/53/53 59/59/59 58/57/57
f 53/53/53 54/104/54 60/102/60 59/59/59
f 54/54/54 55/55/55 61/61/61 60/60/60
f 55/55/55 56/56/56 62/62/62 61/61/61
f 56/56/56 51/52/52 57/58/58 62/62/62
f 34/34/34 33/33/33 63/63/63
f 35/37/37 34/34/34 63/63/63
f 36/39/39 35/37/37 63/63/63
f 37/41/41 36/103/39 63/63/63
f 38/43/43 37/41/41 63/63/63
f 33/33/33 38/43/43 63/63/63
f 57/58/58 58/57/57 64/64/64
f 58/57/57 59/59/59 64/64/64
f 59/59/59 60/102/60 64/64/64
f 60/60/60 61/61/61 64/64/64
f 61/61/61 62/62/62 64/64/64
f 62/62/62 57/58/58 64/64/64
s 3
f 65/65/65 66/66/66 72/67/67 71/68/68
f 66/66/66 67/69/69 73/70/70 72/67/67
f 67/69/69 68/71/71 74/101/72 73/70/70
f 68/98/71 69/73/73 75/74/74 74/72/72
f 69/73/73 70/75/75 76/76/76 75/74/74
f 70/75/75 65/65/65 71/68/68 76/76/76
f 71/68/68 72/67/67 78/77/77 77/78/78
f 72/67/67 73/70/70 79/79/79 78/77/77
f 73/70/70 74/101/72 80/100/80 79/79/79
f 74/72/72 75/74/74 81/81/81 80/80/80
f 75/74/74 76/76/76 82/82/82 81/81/81
f 76/76/76 71/68/68 77/78/78 82/82/82
f 77/78/78 78/77/77 84/83/83 83/84/84
f 78/77/77 79/79/79 85/85/85 84/83/83
f 79/79/79 80/100/80 86/99/86 85/85/85
f 80/80/80 81/81/81 87/87/87 86/86/86
f 81/81/81 82/82/82 88/88/88 87/87/87
f 82/82/82 77/78/78 83/84/84 88/88/88
f 83/84/84 84/83/83 90/89/89 89/90/90
f 84/83/83 85/85/85 91/91/91 90/89/89
f 85/85/85 86/99/86 92/97/92 91/91/91
f 86/86/86 87/87/87 93/93/93 92/92/92
f 87/87/87 88/88/88 94/94/94 93/93/93
f 88/88/88 83/84/84 89/90/90 94/94/94
f 66/66/66 65/65/65 95/95/95
f 67/69/69 66/66/66 95/95/95
f 68/71/71 67/69/69 95/95/95
f 69/73/73 68/98/71 95/95/95
f 70/75/75 69/73/73 95/95/95
f 65/65/65 70/75/75 95/95/95
f 89/90/90 90/89/89 96/96/96
f 90/89/89 91/91/91 96/96/96
f 91/91/91 92/97/92 96/96/96
f 92/92/92 93/93/93 96/96/96
f 93/93/93 94/94/94 96/96/96
f 94/94/94 89/90/90 96/96/96
