# This file uses centimeters as units for non-parametric coordinates.

mtllib SheepChunk_Medium.mtl
g default
v -0.484316 0.373854 -0.673517
v -0.484316 -0.052990 1.323763
v -0.484316 0.237889 0.390347
v -0.117147 -0.055281 1.320797
v 0.289159 -0.002934 0.520552
v 0.518183 -0.010175 -0.653618
v 0.001436 0.250176 -1.323763
v -0.298856 0.243554 0.346968
v -0.029706 0.276548 -0.030872
v 0.125893 0.248426 -0.654278
v -0.492498 -0.373854 1.224798
v -0.490992 -0.088943 0.319122
v -0.518183 0.042863 -0.688925
v -0.172328 -0.370575 1.234339
v 0.143013 -0.296821 0.465971
v 0.333815 -0.288929 -0.654036
v -0.124542 -0.053731 -1.301138
vt 0.389343 0.675455
vt 0.277327 0.705633
vt 0.539097 0.646649
vt 0.642091 0.695353
vt 0.467867 0.723471
vt 0.414619 0.754539
vt 0.549463 0.700155
vt 0.407218 0.776438
vt 0.267571 0.749184
vt 0.565939 0.776432
vt 0.598936 0.943022
vt 0.639981 0.932991
vt 0.858971 0.915319
vt 0.779398 0.910787
vt 0.686236 0.929992
vt 0.686030 0.944385
vt 0.681757 0.991050
vt 0.635582 0.986015
vt 0.639003 0.969230
vt 0.838971 0.969069
vt 0.743384 0.986320
vt 0.930144 0.997075
vt 0.787685 0.974920
vt 0.781811 0.958928
vt 0.990288 0.962378
vt 0.602341 0.957133
vt 0.776487 0.937520
vt 0.681834 0.973859
vt 0.740359 0.969320
vt 0.642173 0.947283
vt 0.944116 0.921547
vt 0.721395 0.934771
vt 0.717496 0.948479
vt 0.617828 0.979330
vt 0.623674 0.962991
vn 0.145503 0.953116 0.265329
vn 0.394016 0.898168 0.195053
vn 0.172667 0.959858 0.221039
vn 0.347125 0.929850 0.121997
vn 0.550997 0.833606 0.038776
vn 0.381007 0.924531 -0.008697
vn 0.323094 0.944613 -0.057595
vn 0.169514 0.985461 0.011489
vn 0.022042 0.974900 0.221548
vn 0.010224 0.956285 0.292259
vn -0.999754 0.021390 0.005878
vn -0.999076 0.040790 0.013564
vn -0.999077 0.040761 0.013553
vn -0.999754 0.021390 0.005878
vn -0.998056 0.058786 0.020696
vn -0.998056 0.058786 0.020696
vn 0.858506 -0.450547 0.244897
vn 0.855871 -0.367181 0.364229
vn 0.855871 -0.367181 0.364229
vn 0.858565 -0.449829 0.246010
vn 0.849065 -0.504968 0.155233
vn 0.849065 -0.504968 0.155233
vn -0.789240 0.192071 -0.583274
vn -0.789240 0.192071 -0.583274
vn -0.789240 0.192071 -0.583274
vn -0.789240 0.192071 -0.583274
vn -0.008784 -0.279011 0.960248
vn -0.008784 -0.279011 0.960248
vn -0.008784 -0.279011 0.960248
vn -0.008784 -0.279011 0.960248
vn 0.668976 -0.380651 -0.638417
vn 0.668976 -0.380651 -0.638417
vn 0.668976 -0.380651 -0.638417
vn 0.668976 -0.380651 -0.638417
vn -0.337744 -0.937273 -0.086303
vn -0.337744 -0.937273 -0.086303
vn -0.337744 -0.937273 -0.086303
vn -0.337744 -0.937273 -0.086303
vn -0.337744 -0.937273 -0.086303
vn -0.166477 -0.957239 -0.236599
vn -0.166477 -0.957239 -0.236599
vn -0.166477 -0.957239 -0.236599
vn -0.166477 -0.957239 -0.236599
s 1
g SheepChunk_Medium
usemtl initialShadingGroup
f 4/2/1 5/1/2 8/6/3
f 8/6/3 5/1/2 9/5/4
f 5/1/2 6/3/5 9/5/4
f 9/5/4 6/3/5 10/7/6
f 6/3/5 7/4/7 10/7/6
f 8/6/3 9/5/4 1/10/8
f 9/5/4 10/7/6 1/10/8
f 10/7/6 7/4/7 1/10/8
f 3/8/9 2/9/10 8/6/3
f 8/6/3 2/9/10 4/2/1
f 1/10/8 3/8/9 8/6/3
s 2
f 2/11/11 3/12/12 12/30/13 11/26/14
f 3/12/12 1/15/15 13/16/16 12/30/13
s 3
f 5/17/17 4/18/18 14/19/19 15/28/20
f 6/21/21 5/17/17 15/28/20 16/29/22
s off
f 1/15/23 7/32/24 17/33/25 13/16/26
f 4/18/27 2/34/28 11/35/29 14/19/30
f 7/23/31 6/21/32 16/29/33 17/24/34
f 12/13/35 13/31/36 17/25/37 16/22/38 15/20/39
f 11/14/40 12/13/41 15/20/42 14/27/43
