# This file uses centimeters as units for non-parametric coordinates.

mtllib SheepChunk_Foot.mtl
g default
v 0.492295 0.121393 -0.297503
v 0.082575 0.045937 -0.680906
v 0.244909 0.440762 0.680906
v -0.492295 0.346044 -0.106455
v 0.359817 -0.440762 -0.220793
v 0.095105 -0.440762 -0.497644
v -0.291282 -0.440759 -0.093538
v 0.212230 -0.440759 0.433064
vt 0.124923 0.883219
vt 0.147493 0.818570
vt 0.069849 0.839626
vt 0.084143 0.896940
vt 0.030815 0.933815
vt 0.009550 0.746757
vt 0.222719 0.746507
vt 0.172987 0.953030
vt 0.898408 0.979682
vt 0.981346 0.867399
vt 0.824223 0.971220
vt 0.838872 0.857915
vn 0.497008 -0.866056 -0.054140
vn 0.095365 -0.610570 0.786200
vn -0.702833 -0.707317 0.075694
vn -0.020876 -0.875871 -0.482094
vn 0.983053 -0.181618 0.024919
vn -0.329971 -0.305022 -0.893353
vn -0.934653 -0.232160 0.269305
vn -0.049972 -0.268604 0.961954
vn 0.158464 0.943101 -0.292319
vn 0.158464 0.943101 -0.292319
vn 0.158464 0.943101 -0.292319
vn 0.158464 0.943101 -0.292319
s 1
g SheepChunk_Foot
usemtl initialShadingGroup
f 5/1/1 8/2/2 7/3/3 6/4/4
f 5/1/1 6/4/4 1/8/5
f 1/8/5 6/4/4 2/5/6
f 6/4/4 7/3/3 2/5/6
f 2/5/6 7/3/3 4/6/7
f 7/3/3 8/2/2 4/6/7
f 4/6/7 8/2/2 3/7/8
f 3/7/8 8/2/2 1/8/5
f 1/8/5 8/2/2 5/1/1
s off
f 2/11/9 4/12/10 3/10/11 1/9/12
