# This file uses centimeters as units for non-parametric coordinates.

mtllib SheepChunk_Head.mtl
g default
v 0.377573 0.476973 -0.309579
v 0.895155 0.341587 -0.186402
v 0.377573 0.611056 -0.241387
v 0.939681 0.468062 -0.118209
v 0.466852 0.735699 -0.486468
v 1.065285 0.555983 -0.363292
v 0.466852 0.601615 -0.554660
v 1.020759 0.429508 -0.431483
v 0.422213 0.736366 -0.331895
v 1.023400 0.571436 -0.208716
v 0.998998 0.502121 -0.246089
v 0.422213 0.662881 -0.369267
v 0.690429 0.430922 -0.219031
v 0.735068 0.616830 -0.278718
v 0.779708 0.555565 -0.464112
v 0.779708 0.689648 -0.395921
v 0.735068 0.690314 -0.241345
v 0.690429 0.565005 -0.150840
v 0.118490 0.741336 -0.181222
v 0.412810 0.753916 -0.141929
v 0.236613 1.078539 -0.179484
v 0.292985 1.080949 -0.171958
v 0.242725 1.080134 -0.232656
v 0.299098 1.082542 -0.225127
v 0.133016 0.745126 -0.307580
v 0.427336 0.757706 -0.268287
v -0.118490 0.741336 -0.181222
v -0.412810 0.753916 -0.141929
v -0.236613 1.078539 -0.179484
v -0.292985 1.080949 -0.171958
v -0.242725 1.080134 -0.232656
v -0.299098 1.082542 -0.225127
v -0.133016 0.745126 -0.307580
v -0.427336 0.757706 -0.268287
v -0.377573 0.476973 -0.309579
v -0.895155 0.341587 -0.186402
v -0.377573 0.611056 -0.241387
v -0.939681 0.468062 -0.118209
v -0.466852 0.735699 -0.486468
v -1.065285 0.555983 -0.363292
v -0.466852 0.601615 -0.554660
v -1.020759 0.429508 -0.431483
v -0.422213 0.736366 -0.331895
v -1.023400 0.571436 -0.208716
v -0.998998 0.502121 -0.246089
v -0.422213 0.662881 -0.369267
v -0.690429 0.430922 -0.219031
v -0.735068 0.616830 -0.278718
v -0.779708 0.555565 -0.464112
v -0.779708 0.689648 -0.395921
v -0.735068 0.690314 -0.241345
v -0.690429 0.565005 -0.150840
v 0.000000 -0.511881 0.080840
v 0.000000 -0.322324 0.472161
v 0.000000 0.077309 0.554660
v 0.000000 0.610128 0.509791
v 0.000000 0.972248 -0.332080
v 0.000000 0.701982 0.545974
v 0.559661 -0.239748 -0.126952
v 0.844358 0.298177 -0.201287
v 0.537780 0.897036 -0.408059
v 0.421698 -0.219422 0.274058
v 0.610380 0.160188 0.278554
v 0.304565 0.548645 0.426732
v 0.326302 0.633483 0.504725
v 0.648823 0.291169 0.321937
v -0.559661 -0.239748 -0.126952
v -0.844358 0.298177 -0.201287
v -0.537780 0.897036 -0.408059
v -0.421698 -0.219422 0.274058
v -0.610380 0.160188 0.278554
v -0.304565 0.548645 0.426732
v -0.326302 0.633483 0.504725
v -0.648823 0.291169 0.321937
v 0.860087 -0.204595 -0.059400
v 0.690317 -0.284140 0.128081
v 0.860087 -0.204595 0.315562
v 1.029857 -0.125051 0.128081
v 0.747582 0.035522 -0.137057
v 0.507491 -0.076972 0.128081
v 0.747582 0.035522 0.393220
v 0.987674 0.148014 0.128081
v 0.635077 0.275638 -0.059400
v 0.465307 0.196094 0.128081
v 0.635077 0.275638 0.315562
v 0.804848 0.355182 0.128081
v 0.906688 -0.304055 0.128081
v 0.588476 0.375098 0.128081
v 0.844109 -0.580079 -0.024165
v 0.691867 -0.581171 0.128081
v 0.844109 -0.580079 0.280328
v 0.996351 -0.578987 0.128081
v 0.842565 -0.364753 -0.087228
v 0.627261 -0.366298 0.128081
v 0.842565 -0.364753 0.343390
v 1.057867 -0.363209 0.128081
v 0.841020 -0.149428 -0.024165
v 0.688778 -0.150520 0.128081
v 0.841020 -0.149428 0.280328
v 0.993262 -0.148336 0.128081
v 0.844748 -0.669270 0.128081
v 0.840380 -0.060237 0.128081
v 0.851357 -0.903546 0.007972
v 0.727402 -0.907462 0.126597
v 0.845910 -1.029790 0.250611
v 0.969867 -0.898127 0.131986
v 0.845910 -0.732351 -0.043490
v 0.670609 -0.737889 0.124272
v 0.838206 -0.730225 0.299653
v 1.013507 -0.724688 0.131890
v 0.838206 -0.560534 0.005551
v 0.714250 -0.564450 0.124179
v 0.832759 -0.559031 0.248193
v 0.956715 -0.555115 0.129565
v 0.851358 -1.029790 0.129792
v 0.832759 -0.488742 0.126370
v 0.721180 -1.082542 0.127488
v 0.799644 -1.078665 0.250611
v 0.805093 -1.034457 0.129792
v 0.885693 -1.078665 0.250611
v 0.969605 -1.076291 0.131097
v 0.891140 -1.034457 0.129792
v -0.860087 -0.204595 -0.059400
v -0.690317 -0.284140 0.128081
v -0.860087 -0.204595 0.315562
v -1.029857 -0.125051 0.128081
v -0.747582 0.035522 -0.137057
v -0.507491 -0.076972 0.128081
v -0.747582 0.035522 0.393220
v -0.987674 0.148014 0.128081
v -0.635077 0.275638 -0.059400
v -0.465307 0.196094 0.128081
v -0.635077 0.275638 0.315562
v -0.804848 0.355182 0.128081
v -0.906688 -0.304055 0.128081
v -0.588476 0.375098 0.128081
v -0.844109 -0.580079 -0.024165
v -0.691867 -0.581171 0.128081
v -0.844109 -0.580079 0.280328
v -0.996351 -0.578987 0.128081
v -0.842565 -0.364753 -0.087228
v -0.627261 -0.366298 0.128081
v -0.842565 -0.364753 0.343390
v -1.057867 -0.363209 0.128081
v -0.841020 -0.149428 -0.024165
v -0.688778 -0.150520 0.128081
v -0.841020 -0.149428 0.280328
v -0.993262 -0.148336 0.128081
v -0.844748 -0.669270 0.128081
v -0.840380 -0.060237 0.128081
v -0.851357 -0.903546 0.007972
v -0.727402 -0.907462 0.126597
v -0.845910 -1.029790 0.250611
v -0.969867 -0.898127 0.131986
v -0.845910 -0.732351 -0.043490
v -0.670609 -0.737889 0.124272
v -0.838206 -0.730225 0.299653
v -1.013507 -0.724688 0.131890
v -0.838206 -0.560534 0.005551
v -0.714250 -0.564450 0.124179
v -0.832759 -0.559031 0.248193
v -0.956715 -0.555115 0.129565
v -0.851358 -1.029790 0.129792
v -0.832759 -0.488742 0.126370
v -0.721180 -1.082542 0.127488
v -0.799644 -1.078665 0.250611
v -0.805093 -1.034457 0.129792
v -0.885693 -1.078665 0.250611
v -0.969605 -1.076291 0.131097
v -0.891140 -1.034457 0.129792
v 0.000000 0.230183 -0.125620
vt 0.892544 0.052835
vt 0.910862 0.046590
vt 0.912187 0.069318
vt 0.906190 0.071346
vt 0.872701 0.086871
vt 0.878855 0.067507
vt 0.909553 0.084314
vt 0.912994 0.097197
vt 0.872524 0.106794
vt 0.926342 0.106586
vt 0.933957 0.050144
vt 0.920872 0.083270
vt 0.961032 0.015205
vt 0.933430 0.009766
vt 0.900645 0.009767
vt 0.875862 0.018908
vt 0.170384 0.012031
vt 0.200522 0.031956
vt 0.168242 0.057176
vt 0.161495 0.054806
vt 0.169945 0.063402
vt 0.170904 0.070290
vt 0.208964 0.044898
vt 0.213803 0.080825
vt 0.170384 0.012031
vt 0.161495 0.054806
vt 0.168242 0.057175
vt 0.200522 0.031956
vt 0.155024 0.053847
vt 0.169945 0.063402
vt 0.155024 0.009765
vt 0.208964 0.044898
vt 0.892455 0.052828
vt 0.906083 0.071199
vt 0.912062 0.069095
vt 0.910676 0.046337
vt 0.872783 0.087032
vt 0.913156 0.096970
vt 0.909531 0.084154
vt 0.878761 0.067561
vt 0.872882 0.106983
vt 0.926577 0.106232
vt 0.933806 0.049842
vt 0.920840 0.082920
vt 0.837467 0.059131
vt 0.933279 0.009576
vt 0.875502 0.018948
vt 0.900334 0.009577
vt 0.124279 0.540384
vt 0.155984 0.632272
vt 0.052301 0.542203
vt 0.747931 0.797889
vt 0.039421 0.615873
vt 0.058739 0.558652
vt 0.973837 0.863467
vt 0.705307 0.760354
vt 0.678211 0.803638
vt 0.009969 0.640295
vt 0.030381 0.604752
vt 0.877851 0.957204
vt 0.018480 0.650116
vt 0.124279 0.540381
vt 0.155982 0.632269
vt 0.747931 0.797889
vt 0.052301 0.542199
vt 0.058739 0.558648
vt 0.039420 0.615868
vt 0.030379 0.604747
vt 0.101949 0.113778
vt 0.106012 0.043180
vt 0.084888 0.010919
vt 0.141064 0.009766
vt 0.090649 0.059078
vt 0.061927 0.049234
vt 0.089013 0.084528
vt 0.059951 0.087853
vt 0.039449 0.009796
vt 0.022725 0.111820
vt 0.029040 0.046586
vt 0.032486 0.083771
vt 0.112537 0.073574
vt 0.009766 0.079514
vt 0.464614 0.787073
vt 0.407806 0.802038
vt 0.396541 0.826559
vt 0.365266 0.812597
vt 0.426188 0.808833
vt 0.426690 0.835545
vt 0.445029 0.804121
vt 0.454977 0.827997
vt 0.395794 0.852316
vt 0.367606 0.852087
vt 0.424888 0.862663
vt 0.455762 0.851810
vt 0.427791 0.787567
vt 0.455977 0.871287
vt 0.301301 0.897307
vt 0.226971 0.893283
vt 0.227307 0.915273
vt 0.200895 0.921701
vt 0.252602 0.880521
vt 0.252669 0.914594
vt 0.278212 0.894687
vt 0.276906 0.915907
vt 0.231913 0.935083
vt 0.213495 0.944647
vt 0.251684 0.937661
vt 0.273256 0.935264
vt 0.289863 0.875964
vt 0.247220 0.874570
vt 0.232403 0.870955
vt 0.247410 0.863787
vt 0.272882 0.872145
vt 0.258111 0.875117
vt 0.284564 0.876083
vt 0.269041 0.950102
vt 0.135668 0.048822
vt 0.060541 0.130303
vt 0.084921 0.010938
vt 0.106040 0.043214
vt 0.061961 0.049235
vt 0.090674 0.059109
vt 0.059932 0.087842
vt 0.089004 0.084560
vt 0.022646 0.111739
vt 0.039492 0.009780
vt 0.029075 0.046548
vt 0.032466 0.083720
vt 0.112545 0.073626
vt 0.012293 0.024575
vt 0.393779 0.786189
vt 0.487927 0.818334
vt 0.396552 0.826551
vt 0.407801 0.802024
vt 0.426701 0.835518
vt 0.426191 0.808808
vt 0.454985 0.827975
vt 0.445033 0.804095
vt 0.480142 0.853955
vt 0.395816 0.852308
vt 0.424900 0.862640
vt 0.455766 0.851793
vt 0.427780 0.787543
vt 0.455967 0.871274
vt 0.505766 0.823007
vt 0.605327 0.849114
vt 0.529019 0.839818
vt 0.528338 0.817927
vt 0.554206 0.838362
vt 0.554147 0.803065
vt 0.578268 0.840388
vt 0.579886 0.819300
vt 0.590137 0.869853
vt 0.533860 0.859512
vt 0.553252 0.861676
vt 0.574448 0.859733
vt 0.559909 0.786902
vt 0.547311 0.797862
vt 0.544845 0.786964
vt 0.531875 0.795997
vt 0.576268 0.797094
vt 0.564963 0.787991
vt 0.560988 0.798476
vt 0.569959 0.874513
vt 0.018482 0.650121
vt 0.009970 0.640300
vt 0.678211 0.803638
vt 0.705307 0.760354
vt 0.161980 0.062148
vt 0.170904 0.070290
vt 0.213803 0.080825
vt 0.161980 0.062148
vt 0.155024 0.053847
vt 0.155024 0.009766
vt 0.957241 0.063420
vt 0.853014 0.036710
vt 0.827895 0.079765
vt 0.960934 0.015078
vt 0.957363 0.063710
vt 0.853291 0.036459
vt 0.837580 0.058672
vt 0.827798 0.079162
vt 0.587585 0.801435
vt 0.550820 0.786179
vt 0.514021 0.801541
vt 0.592862 0.801597
vt 0.520057 0.801342
vt 0.536921 0.874515
vt 0.515828 0.869639
vt 0.603058 0.822956
vt 0.502878 0.847256
vt 0.394301 0.871292
vt 0.367633 0.852108
vt 0.464619 0.787052
vt 0.365258 0.812632
vt 0.009750 0.079419
vt 0.101878 0.113837
vt 0.141079 0.009785
vt 0.259675 0.864473
vt 0.214064 0.875701
vt 0.254020 0.864317
vt 0.220101 0.875856
vt 0.234716 0.950107
vt 0.289298 0.944883
vt 0.204502 0.897172
vt 0.304177 0.923639
vt 0.394272 0.871297
vt 0.480148 0.853956
vt 0.393812 0.786183
vt 0.487919 0.818341
vt 0.012254 0.024603
vt 0.135643 0.048794
vt 0.060653 0.130317
vt 0.651959 0.863143
vt 0.651959 0.863143
vt 0.689910 0.872942
vt 0.689910 0.872942
vt 0.748171 0.848685
vt 0.748171 0.848685
vt 0.798854 0.799029
vt 0.810959 0.872934
vt 0.798854 0.799030
vt 0.810959 0.872934
vt 0.971772 0.968421
vt 0.925849 0.910331
vt 0.868863 0.863043
vt 0.128973 0.696399
vt 0.128973 0.696399
vt 0.914025 0.987978
vt 0.752024 0.732270
vt 0.752024 0.732270
vt 0.989004 0.918203
vt 0.847943 0.920311
vt 0.919476 0.847007
vn -0.205096 0.139533 0.968745
vn -0.114280 -0.911204 -0.395788
vn 0.368384 -0.029651 0.929201
vn 0.113012 -0.956123 -0.270293
vn 0.081622 0.879139 0.469524
vn 0.681826 0.536343 0.497444
vn 0.306396 0.852448 -0.423621
vn 0.836962 0.457545 -0.300246
vn -0.063878 -0.811988 -0.580169
vn 0.093897 -0.899293 -0.427147
vn -0.079404 -0.875497 -0.476656
vn 0.459683 -0.887950 -0.015398
vn 0.000000 -0.891349 -0.453318
vn -0.025075 -0.923416 -0.382981
vn 0.025077 -0.853394 -0.520664
vn 0.258492 0.848629 -0.461530
vn 0.000001 0.891348 0.453319
vn -0.258491 0.126870 0.957646
vn -0.632537 0.217747 0.743292
vn 0.386331 0.223718 0.894818
vn 0.266978 0.222660 0.937628
vn -0.502817 0.208611 0.838843
vn 0.494845 0.340089 -0.799667
vn -0.288690 0.331080 -0.898356
vn 0.570234 0.325332 -0.754316
vn -0.401358 0.323119 -0.857034
vn 0.632537 0.217747 0.743292
vn 0.502817 0.208611 0.838843
vn -0.266978 0.222660 0.937628
vn -0.386331 0.223718 0.894818
vn 0.288690 0.331080 -0.898356
vn -0.494845 0.340089 -0.799667
vn 0.401358 0.323119 -0.857033
vn -0.570234 0.325332 -0.754316
vn 0.205096 0.139534 0.968745
vn -0.368384 -0.029651 0.929201
vn 0.114280 -0.911204 -0.395788
vn -0.113012 -0.956123 -0.270293
vn -0.836962 0.457545 -0.300247
vn -0.681826 0.536343 0.497444
vn -0.306396 0.852448 -0.423621
vn -0.081622 0.879139 0.469524
vn -0.093897 -0.899293 -0.427148
vn 0.063878 -0.811988 -0.580169
vn 0.079404 -0.875497 -0.476656
vn -0.459682 -0.887950 -0.015398
vn -0.000000 -0.891349 -0.453318
vn 0.025075 -0.923416 -0.382981
vn -0.025077 -0.853394 -0.520664
vn -0.258492 0.848629 -0.461531
vn -0.000001 0.891348 0.453319
vn 0.258491 0.126870 0.957646
vn 0.859596 -0.413450 0.300256
vn 0.684379 -0.282842 0.672031
vn 0.757393 -0.588383 0.283128
vn 0.589616 -0.564684 0.577481
vn 0.536688 0.769360 0.346484
vn 0.512644 0.757699 0.403843
vn 0.794923 0.508808 0.330473
vn 0.802147 0.334899 0.494371
vn 0.000000 -0.604498 0.796606
vn 0.000000 -0.935569 0.353143
vn -0.000000 -0.107093 0.994249
vn -0.000000 0.083913 0.996473
vn 0.369327 0.013549 0.929201
vn 0.000000 0.950029 0.312161
vn 0.000000 0.923597 0.383365
vn 0.703213 -0.400877 0.587188
vn -0.116765 -0.626600 0.770544
vn -0.000000 -0.441288 0.897366
vn -0.589616 -0.564684 0.577481
vn -0.684379 -0.282842 0.672031
vn -0.757393 -0.588383 0.283128
vn -0.859596 -0.413450 0.300256
vn -0.802147 0.334899 0.494371
vn -0.512644 0.757699 0.403843
vn -0.794923 0.508808 0.330473
vn -0.536688 0.769360 0.346484
vn -0.369328 0.013549 0.929201
vn 0.116765 -0.626600 0.770544
vn -0.703213 -0.400877 0.587188
vn 0.160268 -0.342056 -0.925911
vn -0.678174 -0.734901 0.000000
vn -0.816276 -0.484298 0.314881
vn 0.324260 0.050092 -0.944641
vn 0.160268 -0.342056 0.925911
vn -0.000000 -0.000000 1.000000
vn 0.998709 0.050789 -0.000000
vn 0.905531 0.424280 0.000000
vn -0.160268 0.342055 0.925912
vn -0.732818 -0.037268 0.679403
vn 0.678174 0.734901 0.000000
vn 0.497621 0.539246 -0.679402
vn 0.424280 -0.905531 0.000000
vn -0.238516 0.952721 0.188237
vn 0.002708 -0.377731 -0.925911
vn -0.923179 -0.384371 -0.000000
vn -0.999974 -0.007173 -0.000000
vn 0.000001 0.000000 -1.000000
vn 0.002708 -0.377731 0.925911
vn 0.000001 0.000000 1.000000
vn 0.928597 -0.371090 -0.000000
vn 0.999974 0.007172 -0.000000
vn -0.928597 0.371089 -0.000000
vn -0.002710 0.377731 -0.925911
vn -0.002710 0.377731 0.925911
vn 0.923179 0.384372 -0.000000
vn 0.007173 -0.999974 -0.000000
vn -0.007173 0.999974 -0.000000
vn 0.036314 -0.373041 -0.927104
vn -0.952878 -0.290761 -0.086491
vn -0.990567 -0.005335 -0.136925
vn 0.022450 -0.006192 -0.999729
vn -0.012345 -0.169854 0.985392
vn -0.021626 0.086833 0.995988
vn 0.970337 -0.239068 -0.035958
vn 0.993142 0.071035 -0.092864
vn -0.939472 0.341840 -0.023208
vn 0.006313 0.371721 -0.928323
vn -0.035257 0.383183 0.922999
vn 0.910527 0.413062 0.017884
vn 0.026754 -0.739675 -0.672433
vn -0.013551 -0.790035 0.612912
vn -0.872404 -0.295808 0.389114
vn 0.260294 -0.498662 -0.826791
vn 0.869290 -0.302126 0.391222
vn 0.040534 -0.744512 0.666377
vn -0.224607 -0.467948 -0.854738
vn -0.038314 0.999241 -0.007051
vn -0.160268 -0.342056 -0.925911
vn -0.324260 0.050092 -0.944641
vn 0.816276 -0.484298 0.314881
vn 0.678174 -0.734901 0.000000
vn 0.000000 -0.000000 1.000000
vn -0.160268 -0.342056 0.925911
vn -0.905531 0.424280 0.000000
vn -0.998709 0.050789 -0.000000
vn 0.732818 -0.037268 0.679403
vn 0.160268 0.342055 0.925912
vn -0.678174 0.734901 0.000000
vn -0.497621 0.539246 -0.679402
vn -0.424280 -0.905531 -0.000000
vn 0.238516 0.952721 0.188237
vn -0.002708 -0.377731 -0.925911
vn -0.000001 0.000000 -1.000000
vn 0.999974 -0.007173 0.000000
vn 0.923179 -0.384371 0.000000
vn -0.000001 0.000000 1.000000
vn -0.002708 -0.377731 0.925911
vn -0.999974 0.007172 0.000000
vn -0.928597 -0.371089 0.000000
vn 0.002710 0.377731 -0.925911
vn 0.928598 0.371089 0.000000
vn 0.002710 0.377731 0.925911
vn -0.923178 0.384372 0.000000
vn -0.007173 -0.999974 0.000000
vn 0.007173 0.999974 -0.000000
vn -0.036314 -0.373041 -0.927104
vn -0.022450 -0.006192 -0.999729
vn 0.990567 -0.005335 -0.136925
vn 0.952878 -0.290761 -0.086491
vn 0.021626 0.086833 0.995988
vn 0.012345 -0.169854 0.985392
vn -0.970337 -0.239068 -0.035958
vn -0.993142 0.071035 -0.092864
vn -0.006313 0.371721 -0.928323
vn 0.939472 0.341840 -0.023208
vn 0.035257 0.383183 0.922999
vn -0.910527 0.413062 0.017884
vn -0.026754 -0.739675 -0.672433
vn 0.013551 -0.790036 0.612911
vn -0.260294 -0.498662 -0.826791
vn 0.872404 -0.295808 0.389114
vn -0.869290 -0.302126 0.391222
vn 0.224607 -0.467948 -0.854738
vn -0.040536 -0.744512 0.666377
vn 0.038314 0.999241 -0.007051
vn 0.152797 -0.179217 -0.971872
vn 0.152797 -0.179217 -0.971872
vn 0.125517 -0.258416 -0.957845
vn 0.129486 -0.247170 -0.960281
vn -0.152797 -0.179217 -0.971872
vn -0.152797 -0.179217 -0.971872
vn -0.129486 -0.247170 -0.960281
vn -0.125517 -0.258416 -0.957845
vn 0.105145 -0.314746 -0.943334
vn 0.105145 -0.314746 -0.943334
vn -0.105145 -0.314746 -0.943334
vn -0.105145 -0.314746 -0.943334
s 1
g SheepChunk_Head
usemtl initialShadingGroup
f 18/1/1 13/2/2 4/4/3
f 4/4/3 13/2/2 2/3/4
f 17/6/5 10/7/6 16/5/7
f 16/5/7 10/7/6 6/8/8
f 16/5/7 6/8/8 15/9/9
f 15/9/9 6/8/8 8/10/10
f 14/11/11 15/179/9 11/12/12
f 11/12/12 15/179/9 8/10/10
f 10/7/6 11/12/12 8/10/10 6/8/8
f 18/1/1 4/4/3 17/6/5
f 17/6/5 4/4/3 10/7/6
f 2/3/4 11/12/12 10/7/6 4/4/3
f 14/11/11 11/12/12 13/2/2
f 13/2/2 11/12/12 2/3/4
f 12/14/13 14/11/11 13/2/2 1/15/14
f 7/13/15 15/179/9 14/11/11 12/14/13
f 5/181/16 16/5/7 15/9/9 7/182/15
f 9/180/17 17/6/5 16/5/7 5/181/16
f 3/16/18 18/1/1 17/6/5 9/180/17
f 1/15/14 13/2/2 18/1/1 3/16/18
s 4
f 19/17/19 20/18/20 22/19/21 21/20/22
f 21/20/22 22/19/21 24/21/23 23/172/24
f 23/22/24 24/21/23 26/23/25 25/24/26
f 20/18/20 26/23/25 24/21/23 22/19/21
f 25/174/26 19/17/19 21/20/22 23/173/24
s 5
f 27/25/27 29/26/28 30/27/29 28/28/30
f 29/26/28 31/169/31 32/30/32 30/27/29
f 31/170/31 33/171/33 34/32/34 32/30/32
f 28/28/30 30/27/29 32/30/32 34/32/34
f 33/31/33 31/29/31 29/26/28 27/25/27
s 6
f 52/33/35 38/34/36 47/36/37
f 47/36/37 38/34/36 36/35/38
f 40/38/39 44/39/40 50/37/41
f 50/37/41 44/39/40 51/40/42
f 42/42/43 40/38/39 49/41/44
f 49/41/44 40/38/39 50/37/41
f 48/43/45 45/44/46 49/175/44
f 49/175/44 45/44/46 42/42/43
f 44/39/40 40/38/39 42/42/43 45/44/46
f 44/39/40 38/34/36 51/40/42
f 51/40/42 38/34/36 52/33/35
f 36/35/38 38/34/36 44/39/40 45/44/46
f 36/35/38 45/44/46 47/36/37
f 47/36/37 45/44/46 48/43/45
f 46/46/47 35/48/48 47/36/37 48/43/45
f 41/178/49 46/46/47 48/43/45 49/175/44
f 39/45/50 41/177/49 49/41/44 50/37/41
f 43/176/51 39/45/50 50/37/41 51/40/42
f 37/47/52 43/176/51 51/40/42 52/33/35
f 35/48/48 37/47/52 52/33/35 47/36/37
s 9
f 60/223/53 63/219/54 59/222/55
f 59/222/55 63/219/54 62/52/56
s 10
f 61/50/57 65/53/58 60/49/59
f 60/49/59 65/53/58 66/54/60
s 9
f 54/168/61 53/231/62 62/52/56
f 62/52/56 53/231/62 59/222/55
f 54/168/61 62/52/56 55/167/63
f 55/167/63 62/52/56 63/219/54
f 56/214/64 55/167/63 64/217/65
f 64/217/65 55/167/63 63/219/54
s 10
f 61/50/57 57/227/66 65/53/58
f 65/53/58 57/227/66 58/165/67
f 63/51/68 66/54/60 64/59/69
f 64/59/69 66/54/60 65/53/58
f 63/51/68 60/49/59 66/54/60
f 64/59/69 65/53/58 56/166/70
f 56/166/70 65/53/58 58/165/67
s 9
f 70/64/71 71/218/72 67/220/73
f 67/220/73 71/218/72 68/221/74
s 10
f 74/66/75 73/67/76 68/62/77
f 68/62/77 73/67/76 69/63/78
s 9
f 54/56/61 70/64/71 53/230/62
f 53/230/62 70/64/71 67/220/73
f 71/218/72 70/64/71 55/57/63
f 55/57/63 70/64/71 54/56/61
f 56/215/64 72/216/79 55/57/63
f 55/57/63 72/216/79 71/218/72
s 10
f 69/63/78 73/67/76 57/228/66
f 57/228/66 73/67/76 58/61/67
f 73/67/76 74/66/75 72/68/80
f 72/68/80 74/66/75 71/65/81
f 71/65/81 74/66/75 68/62/77
f 58/61/67 73/67/76 56/58/70
f 56/58/70 73/67/76 72/68/80
s 15
f 75/212/82 76/70/83 80/71/84 79/72/85
f 76/70/83 77/73/86 81/74/87 80/71/84
f 77/73/86 78/75/88 82/76/89 81/74/87
f 78/75/88 75/69/82 79/213/85 82/76/89
f 80/71/84 81/74/87 85/79/90 84/77/91
f 81/74/87 82/76/89 86/80/92 85/79/90
f 82/76/89 79/213/85 83/78/93 86/80/92
f 76/70/83 75/212/82 87/81/94
f 77/73/86 76/70/83 87/81/94
f 78/75/88 77/73/86 87/81/94
f 75/69/82 78/75/88 87/81/94
f 84/77/91 85/79/90 88/211/95
f 85/79/90 86/80/92 88/82/95
f 86/80/92 83/78/93 88/82/95
s 16
f 89/209/96 90/84/97 94/85/98 93/86/99
f 90/84/97 91/87/100 95/88/101 94/85/98
f 91/87/100 92/89/102 96/90/103 95/88/101
f 92/89/102 89/83/96 93/210/99 96/90/103
f 93/86/99 94/85/98 98/91/104 97/92/105
f 94/85/98 95/88/101 99/93/106 98/91/104
f 95/88/101 96/90/103 100/94/107 99/93/106
f 96/90/103 93/210/99 97/208/105 100/94/107
f 90/84/97 89/209/96 101/95/108
f 91/87/100 90/84/97 101/95/108
f 92/89/102 91/87/100 101/95/108
f 89/83/96 92/89/102 101/95/108
f 97/92/105 98/91/104 102/207/109
f 98/91/104 99/93/106 102/207/109
f 99/93/106 100/94/107 102/96/109
f 100/94/107 97/208/105 102/96/109
s 17
f 103/205/110 104/98/111 108/99/112 107/100/113
f 105/101/114 109/102/115 104/98/111
f 104/98/111 109/102/115 108/99/112
f 105/101/114 106/103/116 109/102/115
f 109/102/115 106/103/116 110/104/117
f 106/103/116 103/97/110 107/206/113 110/104/117
f 107/100/113 108/99/112 112/105/118 111/106/119
f 108/99/112 109/102/115 113/107/120 112/105/118
f 109/102/115 110/104/117 114/108/121 113/107/120
f 110/104/117 107/206/113 111/204/119 114/108/121
f 104/98/111 103/205/110 115/200/122
f 118/110/123 117/111/124 119/112/125
f 121/113/126 120/114/127 122/199/128
f 103/97/110 106/103/116 115/109/122
f 111/106/119 112/105/118 116/203/129
f 112/105/118 113/107/120 116/203/129
f 113/107/120 114/108/121 116/116/129
f 114/108/121 111/204/119 116/116/129
f 104/98/111 117/111/124 105/101/114
f 105/101/114 117/111/124 118/110/123
f 115/200/122 119/202/125 104/98/111
f 104/98/111 119/202/125 117/111/124
f 115/201/122 105/101/114 119/112/125
f 119/112/125 105/101/114 118/110/123
f 106/103/116 105/101/114 121/113/126
f 121/113/126 105/101/114 120/114/127
f 115/201/122 122/199/128 105/101/114
f 105/101/114 122/199/128 120/114/127
f 115/109/122 106/103/116 122/115/128
f 106/103/116 121/113/126 122/115/128
s 21
f 123/117/130 127/198/131 128/119/132 124/120/133
f 124/120/133 128/119/132 129/121/134 125/122/135
f 125/122/135 129/121/134 130/123/136 126/124/137
f 126/124/137 130/123/136 127/118/131 123/197/130
f 128/119/132 132/126/138 133/127/139 129/121/134
f 129/121/134 133/127/139 134/128/140 130/123/136
f 130/123/136 134/128/140 131/125/141 127/118/131
f 124/120/133 135/129/142 123/117/130
f 125/122/135 135/129/142 124/120/133
f 126/124/137 135/129/142 125/122/135
f 123/197/130 135/129/142 126/124/137
f 132/126/138 136/130/143 133/127/139
f 133/127/139 136/196/143 134/128/140
f 134/128/140 136/196/143 131/125/141
s 22
f 137/131/144 141/195/145 142/133/146 138/134/147
f 138/134/147 142/133/146 143/135/148 139/136/149
f 139/136/149 143/135/148 144/137/150 140/138/151
f 140/138/151 144/137/150 141/132/145 137/194/144
f 141/195/145 145/193/152 146/140/153 142/133/146
f 142/133/146 146/140/153 147/141/154 143/135/148
f 143/135/148 147/141/154 148/142/155 144/137/150
f 144/137/150 148/142/155 145/139/152 141/132/145
f 138/134/147 149/143/156 137/131/144
f 139/136/149 149/143/156 138/134/147
f 140/138/151 149/143/156 139/136/149
f 137/194/144 149/143/156 140/138/151
f 145/193/152 150/192/157 146/140/153
f 146/140/153 150/192/157 147/141/154
f 147/141/154 150/144/157 148/142/155
f 148/142/155 150/144/157 145/139/152
s 23
f 151/145/158 155/191/159 156/147/160 152/148/161
f 156/147/160 157/149/162 152/148/161
f 152/148/161 157/149/162 153/150/163
f 153/150/163 157/149/162 154/152/164
f 154/152/164 157/149/162 158/151/165
f 154/152/164 158/151/165 155/146/159 151/190/158
f 155/191/159 159/189/166 160/154/167 156/147/160
f 156/147/160 160/154/167 161/155/168 157/149/162
f 157/149/162 161/155/168 162/156/169 158/151/165
f 158/151/165 162/156/169 159/153/166 155/146/159
f 152/148/161 163/185/170 151/145/158
f 166/158/171 167/159/172 165/160/173
f 169/161/174 170/162/175 168/163/176
f 151/190/158 163/186/170 154/152/164
f 159/189/166 164/188/177 160/154/167
f 160/154/167 164/188/177 161/155/168
f 161/155/168 164/164/177 162/156/169
f 162/156/169 164/164/177 159/153/166
f 166/158/171 165/160/173 153/150/163
f 153/150/163 165/160/173 152/148/161
f 163/185/170 152/148/161 167/187/172
f 152/148/161 165/160/173 167/187/172
f 163/184/170 167/159/172 153/150/163
f 153/150/163 167/159/172 166/158/171
f 154/152/164 169/161/174 153/150/163
f 153/150/163 169/161/174 168/163/176
f 168/163/176 170/162/175 153/150/163
f 153/150/163 170/162/175 163/157/170
f 163/186/170 170/183/175 154/152/164
f 170/183/175 169/161/174 154/152/164
s 26
f 53/55/178 67/232/179 68/224/180 171/225/181
s 27
f 59/234/182 53/55/183 171/225/184 60/226/185
s 26
f 171/225/181 68/224/180 69/229/186 57/60/187
s 27
f 60/226/185 171/225/184 57/60/188 61/233/189
