# This file uses centimeters as units for non-parametric coordinates.

mtllib SheepChunk_Large.mtl
g default
v 0.000000 -1.385520 0.178674
v 0.000000 -0.910021 0.768012
v 0.000000 -0.479510 0.817718
v 0.000000 1.004619 0.404798
v 0.000000 1.385520 -0.575606
v 0.681920 -1.381042 0.142560
v 1.647746 -0.732890 -0.605857
v 0.559661 -0.207377 0.609925
v 1.594958 -0.294199 -0.458405
v 0.844358 0.330548 0.535590
v 1.396000 0.478535 -0.637874
v 0.537780 0.929408 0.328818
v 1.132726 1.032657 -0.817718
v 0.367169 1.383229 -0.578572
v 0.757440 -0.864924 0.625260
v -0.681920 -1.381042 0.142560
v -1.647746 -0.732890 -0.605857
v -0.559661 -0.207377 0.609925
v -1.594958 -0.294199 -0.458405
v -0.844358 0.330548 0.535590
v -1.396000 0.478535 -0.637874
v -0.537780 0.929408 0.328818
v -1.132726 1.032657 -0.817718
v -0.367169 1.383229 -0.578572
v -0.757440 -0.864924 0.625260
v 0.326519 0.006416 0.561839
v 0.497088 0.300740 0.529021
v 0.000000 -0.143031 0.654559
v 0.315565 0.628528 0.437106
v 0.000000 0.669832 0.471009
v -0.315565 0.628528 0.437106
v -0.497088 0.300740 0.529021
v -0.326519 0.006416 0.561839
v 0.326519 -0.143106 0.018701
v 0.497088 0.151218 -0.014117
v 0.000000 0.151157 -0.014302
v 0.000000 -0.292552 0.111421
v 0.315565 0.479006 -0.106032
v 0.000000 0.520310 -0.072129
v -0.315565 0.479006 -0.106032
v -0.497088 0.151219 -0.014117
v -0.326519 -0.143106 0.018701
v 0.000000 -0.411314 -0.083453
v -0.000000 -0.189960 -0.253242
v 0.000000 0.479591 -0.403844
v 0.000000 0.968150 -0.583056
vt 0.803070 0.880096
vt 0.762476 0.895031
vt 0.104032 0.369420
vt 0.762202 0.909633
vt 0.082221 0.456579
vt 0.761211 0.935086
vt 0.961652 0.982590
vt 0.763297 0.954933
vt 0.155984 0.632272
vt 0.277327 0.705633
vt 0.077088 0.237626
vt 0.022907 0.335816
vt 0.129017 0.696387
vt 0.267560 0.749144
vt 0.143675 0.288527
vt 0.104032 0.369421
vt 0.868148 0.928663
vt 0.082221 0.456579
vt 0.859932 0.940738
vt 0.909097 0.891584
vt 0.846029 0.962081
vt 0.155982 0.632269
vt 0.832855 0.977071
vt 0.277323 0.705629
vt 0.077089 0.237622
vt 0.129020 0.696391
vt 0.267565 0.749147
vt 0.022907 0.335813
vt 0.009846 0.396316
vt 0.009847 0.396319
vt 0.894704 0.960577
vt 0.937029 0.936131
vt 0.983767 0.909146
vt 0.124871 0.538620
vt 0.882298 0.927381
vt 0.947895 0.887253
vt 0.124871 0.538622
vt 0.917258 0.987912
vt 0.984794 0.951156
vt 0.969445 0.946010
vt 0.953451 0.965794
vt 0.966328 0.919214
vt 0.925432 0.968798
vt 0.909737 0.951894
vt 0.902940 0.929851
vt 0.919546 0.907082
vt 0.944677 0.903118
vt 0.951873 0.940783
vt 0.947247 0.953057
vt 0.953586 0.926571
vt 0.933136 0.950686
vt 0.923293 0.944064
vt 0.922477 0.932228
vt 0.927477 0.918821
vt 0.940420 0.920949
vt 0.823428 0.886348
vt 0.813666 0.917019
vt 0.810968 0.925498
vt 0.804290 0.946479
vt 0.799248 0.962319
vt 0.795146 0.975208
vt 0.805749 0.978913
vt 0.313974 0.610058
vt 0.272153 0.382669
vt 0.843654 0.893012
vt 0.784352 0.972102
vt 0.313975 0.610060
vt 0.272152 0.382669
vt 0.143675 0.288524
vt 0.285176 0.535919
vt 0.258514 0.438868
vt 0.285175 0.535921
vt 0.258513 0.438869
vn 0.512177 -0.625456 0.588625
vn 0.796906 -0.251321 0.549344
vn 0.615533 -0.256609 0.745165
vn 0.818913 0.099489 0.565228
vn 0.641316 0.034619 0.766495
vn 0.800804 0.176737 0.572255
vn 0.798816 0.416095 0.434463
vn 0.555229 0.720858 0.414832
vn 0.653476 0.644407 0.397125
vn 0.337159 0.873964 0.350015
vn 0.000000 -0.569105 0.822265
vn 0.000000 -0.740263 0.672317
vn 0.000000 0.004603 0.999990
vn 0.000000 0.932123 0.362143
vn -0.000000 0.912254 0.409625
vn -0.615532 -0.256609 0.745165
vn -0.796906 -0.251321 0.549344
vn -0.512177 -0.625456 0.588625
vn -0.641316 0.034619 0.766496
vn -0.818913 0.099489 0.565228
vn -0.800804 0.176737 0.572256
vn -0.798816 0.416095 0.434463
vn -0.555229 0.720858 0.414832
vn -0.653476 0.644407 0.397125
vn -0.337159 0.873964 0.350015
vn 0.074914 0.192854 0.978364
vn 0.074914 0.192854 0.978364
vn -0.000000 0.193397 0.981121
vn 0.000000 0.193397 0.981121
vn 0.051692 0.222633 0.973531
vn 0.051692 0.222633 0.973531
vn 0.000000 0.222931 0.974834
vn 0.000000 0.222931 0.974834
vn -0.051692 0.222633 0.973531
vn -0.051692 0.222633 0.973531
vn -0.074914 0.192854 0.978364
vn -0.074914 0.192854 0.978364
vn -0.044896 0.151690 0.987408
vn -0.044896 0.151690 0.987408
vn -0.044896 0.151690 0.987408
vn -0.044896 0.151690 0.987408
vn 0.118406 0.399197 0.909188
vn 0.118406 0.399197 0.909188
vn 0.118406 0.399197 0.909188
vn 0.118406 0.399197 0.909188
vn -0.006242 0.303802 0.952715
vn -0.006242 0.303802 0.952715
vn -0.006242 0.303802 0.952715
vn -0.006242 0.303802 0.952715
vn 0.153171 0.211447 0.965313
vn -0.000000 0.213971 0.976840
vn -0.000000 0.213972 0.976840
vn 0.153171 0.211447 0.965313
vn -0.153171 0.211447 0.965313
vn -0.153171 0.211447 0.965313
vn 0.006242 0.303802 0.952715
vn 0.006242 0.303802 0.952715
vn 0.006242 0.303802 0.952715
vn 0.006242 0.303802 0.952715
vn 0.044896 0.151689 0.987408
vn 0.044896 0.151689 0.987408
vn 0.044896 0.151689 0.987408
vn 0.044896 0.151689 0.987408
vn -0.118406 0.399197 0.909188
vn -0.118406 0.399197 0.909188
vn -0.118406 0.399197 0.909188
vn -0.118406 0.399197 0.909188
vn -0.863834 0.485707 -0.133711
vn -0.863834 0.485707 -0.133711
vn -0.863834 0.485707 -0.133711
vn -0.863834 0.485707 -0.133711
vn -0.459009 0.856567 -0.235806
vn -0.459009 0.856567 -0.235806
vn -0.459009 0.856567 -0.235806
vn -0.459009 0.856567 -0.235806
vn -0.882394 -0.453635 0.124882
vn -0.882394 -0.453635 0.124882
vn -0.882394 -0.453635 0.124882
vn -0.882394 -0.453635 0.124882
vn -0.097216 -0.959567 0.264161
vn -0.097216 -0.959567 0.264160
vn -0.097216 -0.959567 0.264161
vn -0.097216 -0.959567 0.264160
vn 0.097216 -0.959567 0.264160
vn 0.097216 -0.959567 0.264161
vn 0.097216 -0.959567 0.264160
vn 0.097216 -0.959567 0.264161
vn 0.882394 -0.453636 0.124882
vn 0.882394 -0.453636 0.124882
vn 0.882394 -0.453636 0.124882
vn 0.882394 -0.453636 0.124882
vn 0.863835 0.485707 -0.133711
vn 0.863834 0.485707 -0.133711
vn 0.863835 0.485707 -0.133711
vn 0.863834 0.485707 -0.133711
vn 0.459009 0.856567 -0.235806
vn 0.459009 0.856567 -0.235806
vn 0.459009 0.856567 -0.235806
vn 0.459009 0.856567 -0.235806
vn -0.161516 -0.357533 -0.919828
vn -0.161516 -0.357533 -0.919828
vn 0.000000 -0.362290 -0.932066
vn 0.000000 -0.362290 -0.932066
vn -0.149301 -0.240110 -0.959196
vn -0.149301 -0.240110 -0.959196
vn 0.000000 -0.242831 -0.970069
vn -0.000000 -0.242831 -0.970069
vn -0.225005 -0.050925 -0.973026
vn -0.225005 -0.050925 -0.973026
vn -0.000000 -0.052265 -0.998633
vn 0.000000 -0.052265 -0.998633
vn -0.264576 -0.391464 -0.881337
vn -0.264576 -0.391464 -0.881337
vn 0.000000 -0.405930 -0.913904
vn 0.000000 -0.405930 -0.913904
vn -0.160820 0.152791 -0.975086
vn -0.160820 0.152791 -0.975086
vn -0.000000 0.154806 -0.987945
vn -0.000000 0.154806 -0.987945
vn 0.264576 -0.391464 -0.881337
vn 0.264576 -0.391464 -0.881337
vn 0.225005 -0.050924 -0.973026
vn 0.225005 -0.050924 -0.973026
vn 0.149301 -0.240110 -0.959196
vn 0.149301 -0.240110 -0.959196
vn 0.161516 -0.357533 -0.919828
vn 0.161516 -0.357533 -0.919828
vn 0.160820 0.152791 -0.975086
vn 0.160820 0.152791 -0.975086
s 1
g SheepChunk_Large
usemtl initialShadingGroup
f 6/69/1 7/68/2 15/3/3
f 7/68/2 9/73/4 15/3/3
f 15/3/3 9/73/4 8/5/5
f 8/5/5 9/73/4 10/37/6
f 10/37/6 9/73/4 11/72/7
f 10/37/6 11/72/7 12/9/8
f 12/9/8 11/72/7 13/67/9
f 12/9/8 13/67/9 14/10/10
f 2/28/11 1/25/12 15/3/3
f 15/3/3 1/25/12 6/69/1
f 2/28/11 15/3/3 3/29/13
f 3/29/13 15/3/3 8/5/5
f 5/27/14 4/26/15 14/10/10
f 14/10/10 4/26/15 12/9/8
f 25/16/16 17/64/17 16/15/18
f 18/18/19 19/71/20 25/16/16
f 25/16/16 19/71/20 17/64/17
f 18/18/19 20/34/21 19/71/20
f 19/71/20 20/34/21 21/70/22
f 20/34/21 22/22/23 21/70/22
f 21/70/22 22/22/23 23/63/24
f 22/22/23 24/24/25 23/63/24
f 2/12/11 25/16/16 1/11/12
f 1/11/12 25/16/16 16/15/18
f 18/18/19 25/16/16 3/30/13
f 3/30/13 25/16/16 2/12/11
f 5/14/14 24/24/25 4/13/15
f 4/13/15 24/24/25 22/22/23
s 6
f 34/48/26 35/49/27 36/32/28 37/50/29
s 7
f 35/49/30 38/51/31 39/52/32 36/32/33
f 36/32/33 39/52/32 40/53/34 41/54/35
s 6
f 37/50/29 36/32/28 41/54/36 42/55/37
s off
f 8/39/38 10/7/39 27/41/40 26/40/41
f 3/33/42 8/39/43 26/40/44 28/42/45
f 10/7/46 12/38/47 29/43/48 27/41/49
s 8
f 12/38/50 4/31/51 30/44/52 29/43/53
f 4/31/51 22/35/54 31/45/55 30/44/52
s off
f 22/35/56 20/20/57 32/46/58 31/45/59
f 20/20/60 18/36/61 33/47/62 32/46/63
f 18/36/64 3/33/65 28/42/66 33/47/67
f 26/40/68 27/41/69 35/49/70 34/48/71
f 28/42/72 26/40/73 34/48/74 37/50/75
f 27/41/76 29/43/77 38/51/78 35/49/79
f 29/43/80 30/44/81 39/52/82 38/51/83
f 30/44/84 31/45/85 40/53/86 39/52/87
f 31/45/88 32/46/89 41/54/90 40/53/91
f 32/46/92 33/47/93 42/55/94 41/54/95
f 33/47/96 28/42/97 37/50/98 42/55/99
s 9
f 13/8/100 11/6/101 45/59/102 46/60/103
s 10
f 11/6/104 9/4/105 44/58/106 45/59/107
s 11
f 9/4/108 7/2/109 43/57/110 44/58/111
s 12
f 7/2/112 6/1/113 1/56/114 43/57/115
s 13
f 14/66/116 13/8/117 46/60/118 5/61/119
s 12
f 43/57/115 1/56/114 16/65/120 17/17/121
s 11
f 44/58/111 43/57/110 17/17/122 19/19/123
s 10
f 45/59/107 44/58/106 19/19/124 21/21/125
s 9
f 46/60/103 45/59/102 21/21/126 23/23/127
s 13
f 5/61/119 46/60/118 23/23/128 24/62/129
